<svg width="59" height="59" viewBox="0 0 59 59" fill="none" xmlns="http://www.w3.org/2000/svg">
<ellipse cx="29.43" cy="29.44" rx="29.43" ry="29.44" fill="#D9D9D9"/>
<path d="M29.4277 0C21.8867 0 14.3457 2.86874 8.60742 8.60703C-2.86914 20.0836 -2.86914 38.7711 8.60742 50.2477C14.3457 55.9859 21.9121 58.8805 29.4277 58.8805C36.9434 58.8805 44.5098 55.9859 50.248 50.2477C61.7246 38.7711 61.7246 20.0836 50.248 8.60703C44.5098 2.86874 36.9688 0 29.4277 0ZM29.4277 3.02109C36.1816 3.02109 42.9359 5.61053 48.1156 10.7394C58.3734 21.048 58.3734 37.8066 48.1156 48.1152C37.807 58.4238 21.0492 58.4238 10.7914 48.1152C0.482819 37.8066 0.482025 21.048 10.7398 10.7394C15.9195 5.61053 22.6738 3.02109 29.4277 3.02109ZM29.4277 18.2555C28.5645 18.2555 27.9043 18.9156 27.9043 19.7789V27.9039H19.7793C18.916 27.9039 18.2559 28.5641 18.2559 29.4273C18.2559 30.2906 18.916 30.9508 19.7793 30.9508H27.9043V39.0758C27.9043 39.9391 28.5645 40.5992 29.4277 40.5992C30.291 40.5992 30.9512 39.9391 30.9512 39.0758V30.9508H39.0762C39.9395 30.9508 40.5996 30.2906 40.5996 29.4273C40.5996 28.5641 39.9395 27.9039 39.0762 27.9039H30.9512V19.7789C30.9512 18.9156 30.291 18.2555 29.4277 18.2555Z" fill="black"/>
</svg>
